<?xml version="1.0" standalone="no"?>
<!DOCTYPE svg PUBLIC "-//W3C//DTD SVG 20010904//EN"
 "http://www.w3.org/TR/2001/REC-SVG-20010904/DTD/svg10.dtd">
<svg version="1.0" xmlns="http://www.w3.org/2000/svg"
 width="386.000000pt" height="391.000000pt" viewBox="0 0 386.000000 391.000000"
 preserveAspectRatio="xMidYMid meet">

<g transform="translate(0.000000,391.000000) scale(0.100000,-0.100000)"
fill="#000000" stroke="none">
<path d="M1610 3900 c-627 -73 -1163 -457 -1431 -1025 -256 -546 -218 -1202
100 -1715 199 -320 518 -586 867 -724 110 -43 155 -46 189 -11 25 24 25 26 25
208 l0 183 -118 -4 c-92 -3 -132 0 -178 13 -147 42 -271 143 -339 275 -30 57
-62 97 -134 168 -104 102 -109 118 -39 136 71 18 205 -68 289 -185 70 -99 107
-136 162 -163 72 -36 177 -35 324 5 38 10 42 15 48 49 8 50 57 150 84 174 28
26 27 36 -6 36 -16 0 -69 9 -120 20 -309 65 -472 181 -584 415 -60 125 -89
268 -89 438 0 155 56 325 147 445 l40 52 -15 53 c-25 85 -22 257 6 345 l23 72
38 0 c90 0 282 -70 413 -150 49 -30 49 -30 106 -16 128 32 212 41 392 41 180
0 264 -9 393 -41 54 -14 60 -14 85 5 49 35 205 108 277 130 39 12 98 25 132
28 l62 6 23 -74 c28 -89 31 -260 6 -347 l-15 -53 38 -47 c48 -57 103 -167 124
-247 34 -125 29 -345 -10 -500 -8 -33 -36 -103 -62 -155 -38 -79 -60 -109
-132 -181 -130 -129 -279 -196 -512 -230 l-77 -11 33 -44 c18 -24 44 -69 56
-101 22 -55 23 -74 29 -396 l5 -339 24 -19 c31 -26 66 -24 153 7 156 56 390
190 506 289 l42 37 0 373 0 374 -115 3 c-63 2 -116 7 -116 11 -1 5 121 186
272 403 l273 394 145 -218 146 -217 6 55 c11 85 10 276 -1 375 -89 794 -681
1433 -1460 1575 -130 24 -407 34 -530 20z"/>
<path d="M3051 1898 l-252 -363 111 -3 112 -3 -8 -744 -7 -745 275 0 275 0 6
422 c4 232 7 565 7 740 l0 318 111 0 c88 0 110 3 106 13 -5 14 -463 706 -477
720 -4 5 -121 -155 -259 -355z"/>
</g>
</svg>
